<svg xmlns="http://www.w3.org/2000/svg" width="1005" height="600"><rect width="1005" height="600" x="0" y="0" fill="#FFFFFF" id="background"/><g id="viz"><g transform="translate(0,0)"><g transform="translate(10,20)"><g><path fill="rgb(64, 45, 124)" d="M0,186C31.875,186,31.875,-8,63.75,-8C95.625,-8,95.625,158.00000000000003,127.5,158.00000000000003C159.375,158.00000000000003,159.375,23.000000000000025,191.25,23.000000000000025C223.125,23.000000000000025,223.125,80.00000000000001,255,80.00000000000001C286.875,80.00000000000001,286.875,305,318.75,305C350.625,305,350.625,447,382.5,447L382.5,531C350.625,531,350.625,501,318.75,501C286.875,501,286.875,304,255,304C223.125,304,223.125,135,191.25,135C159.375,135,159.375,298,127.5,298C95.625,298,95.625,160.00000000000003,63.75,160.00000000000003C31.875,160.00000000000003,31.875,326,0,326Z"><title>Cereales con yogur</title></path><path fill="rgb(144, 12, 0)" d="M0,412C31.875,412,31.875,388,63.75,388C95.625,388,95.625,299,127.5,299C159.375,299,159.375,476,191.25,476C223.125,476,223.125,532,255,532C286.875,532,286.875,502,318.75,502C350.625,502,350.625,362,382.5,362L382.5,446C350.625,446,350.625,558,318.75,558C286.875,558,286.875,560,255,560C223.125,560,223.125,560,191.25,560C159.375,560,159.375,383,127.5,383C95.625,383,95.625,444,63.75,444C31.875,444,31.875,496,0,496Z"><title>Tostada con huevos revueltos</title></path><path fill="rgb(255, 155, 33)" d="M0,327C31.875,327,31.875,560,63.75,560C95.625,560,95.625,560,127.5,560C159.375,560,159.375,560,191.25,560C223.125,560,223.125,560,255,560C286.875,560,286.875,560,318.75,560C350.625,560,350.625,560,382.5,560L382.5,560C350.625,560,350.625,560,318.75,560C286.875,560,286.875,560,255,560C223.125,560,223.125,560,191.25,560C159.375,560,159.375,560,127.5,560C95.625,560,95.625,560,63.75,560C31.875,560,31.875,411,0,411Z"><title>Salmon con zapallo</title></path><path fill="rgb(43, 224, 182)" d="M0,560C31.875,560,31.875,245.99999999999997,63.75,245.99999999999997C95.625,245.99999999999997,95.625,560,127.5,560C159.375,560,159.375,560,191.25,560C223.125,560,223.125,560,255,560C286.875,560,286.875,560,318.75,560C350.625,560,350.625,560,382.5,560L382.5,560C350.625,560,350.625,560,318.75,560C286.875,560,286.875,560,255,560C223.125,560,223.125,560,191.25,560C159.375,560,159.375,560,127.5,560C95.625,560,95.625,330,63.75,330C31.875,330,31.875,560,0,560Z"><title>Lomo con ensalada</title></path><path fill="rgb(245, 199, 43)" d="M0,559C31.875,559,31.875,532,63.75,532C95.625,532,95.625,528,127.5,528C159.375,528,159.375,560,191.25,560C223.125,560,223.125,560,255,560C286.875,560,286.875,560,318.75,560C350.625,560,350.625,560,382.5,560L382.5,560C350.625,560,350.625,560,318.75,560C286.875,560,286.875,560,255,560C223.125,560,223.125,560,191.25,560C159.375,560,159.375,556,127.5,556C95.625,556,95.625,560,63.75,560C31.875,560,31.875,559,0,559Z"><title>Risotto de hongos</title></path><path fill="rgb(38, 188, 225)" d="M0,558C31.875,558,31.875,560,63.75,560C95.625,560,95.625,560,127.5,560C159.375,560,159.375,391,191.25,391C223.125,391,223.125,390,255,390C286.875,390,286.875,560,318.75,560C350.625,560,350.625,560,382.5,560L382.5,560C350.625,560,350.625,560,318.75,560C286.875,560,286.875,474,255,474C223.125,474,223.125,475,191.25,475C159.375,475,159.375,560,127.5,560C95.625,560,95.625,560,63.75,560C31.875,560,31.875,558,0,558Z"><title>Falafel</title></path><path fill="rgb(121, 254, 96)" d="M0,558C31.875,558,31.875,560,63.75,560C95.625,560,95.625,559,127.5,559C159.375,559,159.375,306,191.25,306C223.125,306,223.125,475,255,475C286.875,475,286.875,560,318.75,560C350.625,560,350.625,560,382.5,560L382.5,560C350.625,560,350.625,560,318.75,560C286.875,560,286.875,531,255,531C223.125,531,223.125,390,191.25,390C159.375,390,159.375,559,127.5,559C95.625,559,95.625,560,63.75,560C31.875,560,31.875,558,0,558Z"><title>Pastas con crema</title></path><path fill="rgb(73, 247, 136)" d="M0,558C31.875,558,31.875,560,63.75,560C95.625,560,95.625,558,127.5,558C159.375,558,159.375,560,191.25,560C223.125,560,223.125,560,255,560C286.875,560,286.875,560,318.75,560C350.625,560,350.625,221,382.5,221L382.5,361C350.625,361,350.625,560,318.75,560C286.875,560,286.875,560,255,560C223.125,560,223.125,560,191.25,560C159.375,560,159.375,558,127.5,558C95.625,558,95.625,560,63.75,560C31.875,560,31.875,558,0,558Z"><title>Lomo con papas fritas</title></path><path fill="rgb(95, 252, 115)" d="M0,497C31.875,497,31.875,560,63.75,560C95.625,560,95.625,558,127.5,558C159.375,558,159.375,560,191.25,560C223.125,560,223.125,560,255,560C286.875,560,286.875,559,318.75,559C350.625,559,350.625,560,382.5,560L382.5,560C350.625,560,350.625,559,318.75,559C286.875,559,286.875,560,255,560C223.125,560,223.125,560,191.25,560C159.375,560,159.375,558,127.5,558C95.625,558,95.625,560,63.75,560C31.875,560,31.875,553,0,553Z"><title>Merluza con zapallo</title></path><path fill="rgb(203, 232, 57)" d="M0,558C31.875,558,31.875,161.00000000000003,63.75,161.00000000000003C95.625,161.00000000000003,95.625,558,127.5,558C159.375,558,159.375,560,191.25,560C223.125,560,223.125,560,255,560C286.875,560,286.875,559,318.75,559C350.625,559,350.625,560,382.5,560L382.5,560C350.625,560,350.625,559,318.75,559C286.875,559,286.875,560,255,560C223.125,560,223.125,560,191.25,560C159.375,560,159.375,558,127.5,558C95.625,558,95.625,244.99999999999997,63.75,244.99999999999997C31.875,244.99999999999997,31.875,558,0,558Z"><title>Pollo con ensalada</title></path><path fill="rgb(35, 23, 27)" d="M0,557C31.875,557,31.875,331,63.75,331C95.625,331,95.625,384,127.5,384C159.375,384,159.375,560,191.25,560C223.125,560,223.125,560,255,560C286.875,560,286.875,559,318.75,559C350.625,559,350.625,560,382.5,560L382.5,560C350.625,560,350.625,559,318.75,559C286.875,559,286.875,560,255,560C223.125,560,223.125,560,191.25,560C159.375,560,159.375,440,127.5,440C95.625,440,95.625,387,63.75,387C31.875,387,31.875,557,0,557Z"><title>Arroz salteado</title></path><path fill="rgb(64, 118, 245)" d="M0,556C31.875,556,31.875,560,63.75,560C95.625,560,95.625,558,127.5,558C159.375,558,159.375,221,191.25,221C223.125,221,223.125,305,255,305C286.875,305,286.875,559,318.75,559C350.625,559,350.625,560,382.5,560L382.5,560C350.625,560,350.625,559,318.75,559C286.875,559,286.875,389,255,389C223.125,389,223.125,305,191.25,305C159.375,305,159.375,558,127.5,558C95.625,558,95.625,560,63.75,560C31.875,560,31.875,556,0,556Z"><title>Ensalada</title></path><path fill="rgb(149, 251, 81)" d="M0,556C31.875,556,31.875,560,63.75,560C95.625,560,95.625,557,127.5,557C159.375,557,159.375,136,191.25,136C223.125,136,223.125,560,255,560C286.875,560,286.875,559,318.75,559C350.625,559,350.625,560,382.5,560L382.5,560C350.625,560,350.625,559,318.75,559C286.875,559,286.875,560,255,560C223.125,560,223.125,220,191.25,220C159.375,220,159.375,557,127.5,557C95.625,557,95.625,560,63.75,560C31.875,560,31.875,556,0,556Z"><title>Pastas con salsa rosa</title></path><path fill="rgb(255, 178, 38)" d="M0,556C31.875,556,31.875,503,63.75,503C95.625,503,95.625,499,127.5,499C159.375,499,159.375,560,191.25,560C223.125,560,223.125,560,255,560C286.875,560,286.875,559,318.75,559C350.625,559,350.625,560,382.5,560L382.5,560C350.625,560,350.625,559,318.75,559C286.875,559,286.875,560,255,560C223.125,560,223.125,560,191.25,560C159.375,560,159.375,527,127.5,527C95.625,527,95.625,531,63.75,531C31.875,531,31.875,556,0,556Z"><title>Risotto de remolacha</title></path><path fill="rgb(44, 166, 241)" d="M0,555C31.875,555,31.875,474,63.75,474C95.625,474,95.625,470,127.5,470C159.375,470,159.375,560,191.25,560C223.125,560,223.125,560,255,560C286.875,560,286.875,559,318.75,559C350.625,559,350.625,560,382.5,560L382.5,560C350.625,560,350.625,559,318.75,559C286.875,559,286.875,560,255,560C223.125,560,223.125,560,191.25,560C159.375,560,159.375,498,127.5,498C95.625,498,95.625,502,63.75,502C31.875,502,31.875,555,0,555Z"><title>Fajitas</title></path><path fill="rgb(55, 237, 159)" d="M0,554C31.875,554,31.875,560,63.75,560C95.625,560,95.625,556,127.5,556C159.375,556,159.375,560,191.25,560C223.125,560,223.125,560,255,560C286.875,560,286.875,559,318.75,559C350.625,559,350.625,532,382.5,532L382.5,560C350.625,560,350.625,559,318.75,559C286.875,559,286.875,560,255,560C223.125,560,223.125,560,191.25,560C159.375,560,159.375,556,127.5,556C95.625,556,95.625,560,63.75,560C31.875,560,31.875,554,0,554Z"><title>Lomo con papas a la crema</title></path><path fill="rgb(226, 218, 49)" d="M0,554C31.875,554,31.875,445,63.75,445C95.625,445,95.625,441,127.5,441C159.375,441,159.375,560,191.25,560C223.125,560,223.125,560,255,560C286.875,560,286.875,558,318.75,558C350.625,558,350.625,560,382.5,560L382.5,560C350.625,560,350.625,558,318.75,558C286.875,558,286.875,560,255,560C223.125,560,223.125,560,191.25,560C159.375,560,159.375,469,127.5,469C95.625,469,95.625,473,63.75,473C31.875,473,31.875,554,0,554Z"><title>Risotto de calabaza</title></path><path fill="rgb(72, 93, 227)" d="M0,553C31.875,553,31.875,560,63.75,560C95.625,560,95.625,556,127.5,556C159.375,556,159.375,560,191.25,560C223.125,560,223.125,560,255,560C286.875,560,286.875,558,318.75,558C350.625,558,350.625,560,382.5,560L382.5,560C350.625,560,350.625,558,318.75,558C286.875,558,286.875,560,255,560C223.125,560,223.125,560,191.25,560C159.375,560,159.375,556,127.5,556C95.625,556,95.625,560,63.75,560C31.875,560,31.875,553,0,553Z"><title>Empanadas</title></path><path fill="rgb(235, 80, 21)" d="M0,553C31.875,553,31.875,560,63.75,560C95.625,560,95.625,556,127.5,556C159.375,556,159.375,560,191.25,560C223.125,560,223.125,560,255,560C286.875,560,286.875,558,318.75,558C350.625,558,350.625,560,382.5,560L382.5,560C350.625,560,350.625,558,318.75,558C286.875,558,286.875,560,255,560C223.125,560,223.125,560,191.25,560C159.375,560,159.375,556,127.5,556C95.625,556,95.625,560,63.75,560C31.875,560,31.875,553,0,553Z"><title>Sandwich de bondiola</title></path><path fill="rgb(177, 244, 68)" d="M0,553C31.875,553,31.875,560,63.75,560C95.625,560,95.625,556,127.5,556C159.375,556,159.375,560,191.25,560C223.125,560,223.125,560,255,560C286.875,560,286.875,558,318.75,558C350.625,558,350.625,560,382.5,560L382.5,560C350.625,560,350.625,558,318.75,558C286.875,558,286.875,560,255,560C223.125,560,223.125,560,191.25,560C159.375,560,159.375,556,127.5,556C95.625,556,95.625,560,63.75,560C31.875,560,31.875,553,0,553Z"><title>Pizza</title></path><path fill="rgb(214, 57, 15)" d="M0,553C31.875,553,31.875,560,63.75,560C95.625,560,95.625,556,127.5,556C159.375,556,159.375,560,191.25,560C223.125,560,223.125,560,255,560C286.875,560,286.875,558,318.75,558C350.625,558,350.625,560,382.5,560L382.5,560C350.625,560,350.625,558,318.75,558C286.875,558,286.875,560,255,560C223.125,560,223.125,560,191.25,560C159.375,560,159.375,556,127.5,556C95.625,556,95.625,560,63.75,560C31.875,560,31.875,553,0,553Z"><title>Sandwich de pollo</title></path><path fill="rgb(255, 130, 29)" d="M0,553C31.875,553,31.875,560,63.75,560C95.625,560,95.625,556,127.5,556C159.375,556,159.375,560,191.25,560C223.125,560,223.125,560,255,560C286.875,560,286.875,558,318.75,558C350.625,558,350.625,560,382.5,560L382.5,560C350.625,560,350.625,558,318.75,558C286.875,558,286.875,560,255,560C223.125,560,223.125,560,191.25,560C159.375,560,159.375,556,127.5,556C95.625,556,95.625,560,63.75,560C31.875,560,31.875,553,0,553Z"><title>Sandwich de Jamón y Queso</title></path><path fill="rgb(251, 105, 25)" d="M0,553C31.875,553,31.875,560,63.75,560C95.625,560,95.625,556,127.5,556C159.375,556,159.375,560,191.25,560C223.125,560,223.125,560,255,560C286.875,560,286.875,558,318.75,558C350.625,558,350.625,560,382.5,560L382.5,560C350.625,560,350.625,558,318.75,558C286.875,558,286.875,560,255,560C223.125,560,223.125,560,191.25,560C159.375,560,159.375,556,127.5,556C95.625,556,95.625,560,63.75,560C31.875,560,31.875,553,0,553Z"><title>Sandwich de Lomo</title></path><path fill="rgb(191, 37, 10)" d="M0,553C31.875,553,31.875,560,63.75,560C95.625,560,95.625,556,127.5,556C159.375,556,159.375,560,191.25,560C223.125,560,223.125,560,255,560C286.875,560,286.875,558,318.75,558C350.625,558,350.625,560,382.5,560L382.5,560C350.625,560,350.625,558,318.75,558C286.875,558,286.875,560,255,560C223.125,560,223.125,560,191.25,560C159.375,560,159.375,556,127.5,556C95.625,556,95.625,560,63.75,560C31.875,560,31.875,553,0,553Z"><title>Shawarma de hongos</title></path><path fill="rgb(74, 68, 188)" d="M0,553C31.875,553,31.875,560,63.75,560C95.625,560,95.625,556,127.5,556C159.375,556,159.375,560,191.25,560C223.125,560,223.125,560,255,560C286.875,560,286.875,558,318.75,558C350.625,558,350.625,560,382.5,560L382.5,560C350.625,560,350.625,558,318.75,558C286.875,558,286.875,560,255,560C223.125,560,223.125,560,191.25,560C159.375,560,159.375,556,127.5,556C95.625,556,95.625,560,63.75,560C31.875,560,31.875,553,0,553Z"><title>Chorizo de porotos</title></path><path fill="rgb(53, 143, 249)" d="M0,553C31.875,553,31.875,560,63.75,560C95.625,560,95.625,556,127.5,556C159.375,556,159.375,560,191.25,560C223.125,560,223.125,560,255,560C286.875,560,286.875,558,318.75,558C350.625,558,350.625,560,382.5,560L382.5,560C350.625,560,350.625,558,318.75,558C286.875,558,286.875,560,255,560C223.125,560,223.125,560,191.25,560C159.375,560,159.375,556,127.5,556C95.625,556,95.625,560,63.75,560C31.875,560,31.875,553,0,553Z"><title>Ensalada de tomate</title></path><path fill="rgb(168, 22, 4)" d="M0,553C31.875,553,31.875,560,63.75,560C95.625,560,95.625,556,127.5,556C159.375,556,159.375,560,191.25,560C223.125,560,223.125,560,255,560C286.875,560,286.875,558,318.75,558C350.625,558,350.625,560,382.5,560L382.5,560C350.625,560,350.625,558,318.75,558C286.875,558,286.875,560,255,560C223.125,560,223.125,560,191.25,560C159.375,560,159.375,556,127.5,556C95.625,556,95.625,560,63.75,560C31.875,560,31.875,553,0,553Z"><title>Souffle de queso</title></path><path fill="rgb(151, 13, 0)" d="M0,553C31.875,553,31.875,560,63.75,560C95.625,560,95.625,556,127.5,556C159.375,556,159.375,560,191.25,560C223.125,560,223.125,560,255,560C286.875,560,286.875,558,318.75,558C350.625,558,350.625,560,382.5,560L382.5,560C350.625,560,350.625,558,318.75,558C286.875,558,286.875,560,255,560C223.125,560,223.125,560,191.25,560C159.375,560,159.375,556,127.5,556C95.625,556,95.625,560,63.75,560C31.875,560,31.875,553,0,553Z"><title>Tartar de remolacha</title></path><path fill="rgb(38, 208, 205)" d="M0,553C31.875,553,31.875,560,63.75,560C95.625,560,95.625,556,127.5,556C159.375,556,159.375,560,191.25,560C223.125,560,223.125,560,255,560C286.875,560,286.875,558,318.75,558C350.625,558,350.625,560,382.5,560L382.5,560C350.625,560,350.625,558,318.75,558C286.875,558,286.875,560,255,560C223.125,560,223.125,560,191.25,560C159.375,560,159.375,556,127.5,556C95.625,556,95.625,560,63.75,560C31.875,560,31.875,553,0,553Z"><title>Hamburguesa con papas fritas</title></path></g><g id="xAxis" transform="translate(0,560)" fill="none" font-size="10" font-family="sans-serif" text-anchor="middle"><path class="domain" stroke="currentColor" d="M0,0H382.5"/><g class="tick" opacity="1" transform="translate(0,0)"><line stroke="currentColor" y2="6"/><text fill="currentColor" y="9" dy="0.71em">1.0</text></g><g class="tick" opacity="1" transform="translate(31.875,0)"><line stroke="currentColor" y2="6"/><text fill="currentColor" y="9" dy="0.71em">1.5</text></g><g class="tick" opacity="1" transform="translate(63.75,0)"><line stroke="currentColor" y2="6"/><text fill="currentColor" y="9" dy="0.71em">2.0</text></g><g class="tick" opacity="1" transform="translate(95.625,0)"><line stroke="currentColor" y2="6"/><text fill="currentColor" y="9" dy="0.71em">2.5</text></g><g class="tick" opacity="1" transform="translate(127.5,0)"><line stroke="currentColor" y2="6"/><text fill="currentColor" y="9" dy="0.71em">3.0</text></g><g class="tick" opacity="1" transform="translate(159.375,0)"><line stroke="currentColor" y2="6"/><text fill="currentColor" y="9" dy="0.71em">3.5</text></g><g class="tick" opacity="1" transform="translate(191.25,0)"><line stroke="currentColor" y2="6"/><text fill="currentColor" y="9" dy="0.71em">4.0</text></g><g class="tick" opacity="1" transform="translate(223.125,0)"><line stroke="currentColor" y2="6"/><text fill="currentColor" y="9" dy="0.71em">4.5</text></g><g class="tick" opacity="1" transform="translate(255,0)"><line stroke="currentColor" y2="6"/><text fill="currentColor" y="9" dy="0.71em">5.0</text></g><g class="tick" opacity="1" transform="translate(286.875,0)"><line stroke="currentColor" y2="6"/><text fill="currentColor" y="9" dy="0.71em">5.5</text></g><g class="tick" opacity="1" transform="translate(318.75,0)"><line stroke="currentColor" y2="6"/><text fill="currentColor" y="9" dy="0.71em">6.0</text></g><g class="tick" opacity="1" transform="translate(350.625,0)"><line stroke="currentColor" y2="6"/><text fill="currentColor" y="9" dy="0.71em">6.5</text></g><g class="tick" opacity="1" transform="translate(382.5,0)"><line stroke="currentColor" y2="6"/><text fill="currentColor" y="9" dy="0.71em">7.0</text></g></g><text y="556" x="382.5" text-anchor="end" style="font-family: Arial, sans-serif; font-size: 12px; fill: rgb(123, 123, 123); font-weight: bold;">dia de la semana</text><text x="4" text-anchor="start" dominant-baseline="hanging" style="font-family: Arial, sans-serif; font-size: 12px; fill: rgb(123, 123, 123); font-weight: bold;">puntaje</text></g><text x="4" y="4" style="font-family: Arial, sans-serif; font-size: 12px; fill: black; font-weight: bold; dominant-baseline: hanging;">Casero</text></g><g transform="translate(402.5,0)"><g transform="translate(10,20)"><g><path fill="rgb(64, 45, 124)" d="M0,560C127.5,560,127.5,560,255,560C286.875,560,286.875,560,318.75,560C350.625,560,350.625,560,382.5,560L382.5,560C350.625,560,350.625,560,318.75,560C286.875,560,286.875,560,255,560C127.5,560,127.5,560,0,560Z"><title>Cereales con yogur</title></path><path fill="rgb(144, 12, 0)" d="M0,560C127.5,560,127.5,560,255,560C286.875,560,286.875,560,318.75,560C350.625,560,350.625,560,382.5,560L382.5,560C350.625,560,350.625,560,318.75,560C286.875,560,286.875,560,255,560C127.5,560,127.5,560,0,560Z"><title>Tostada con huevos revueltos</title></path><path fill="rgb(255, 155, 33)" d="M0,560C127.5,560,127.5,560,255,560C286.875,560,286.875,560,318.75,560C350.625,560,350.625,560,382.5,560L382.5,560C350.625,560,350.625,560,318.75,560C286.875,560,286.875,560,255,560C127.5,560,127.5,560,0,560Z"><title>Salmon con zapallo</title></path><path fill="rgb(43, 224, 182)" d="M0,560C127.5,560,127.5,560,255,560C286.875,560,286.875,560,318.75,560C350.625,560,350.625,560,382.5,560L382.5,560C350.625,560,350.625,560,318.75,560C286.875,560,286.875,560,255,560C127.5,560,127.5,560,0,560Z"><title>Lomo con ensalada</title></path><path fill="rgb(245, 199, 43)" d="M0,560C127.5,560,127.5,560,255,560C286.875,560,286.875,560,318.75,560C350.625,560,350.625,560,382.5,560L382.5,560C350.625,560,350.625,560,318.75,560C286.875,560,286.875,560,255,560C127.5,560,127.5,560,0,560Z"><title>Risotto de hongos</title></path><path fill="rgb(38, 188, 225)" d="M0,560C127.5,560,127.5,560,255,560C286.875,560,286.875,560,318.75,560C350.625,560,350.625,560,382.5,560L382.5,560C350.625,560,350.625,560,318.75,560C286.875,560,286.875,560,255,560C127.5,560,127.5,560,0,560Z"><title>Falafel</title></path><path fill="rgb(121, 254, 96)" d="M0,560C127.5,560,127.5,560,255,560C286.875,560,286.875,560,318.75,560C350.625,560,350.625,560,382.5,560L382.5,560C350.625,560,350.625,560,318.75,560C286.875,560,286.875,560,255,560C127.5,560,127.5,560,0,560Z"><title>Pastas con crema</title></path><path fill="rgb(73, 247, 136)" d="M0,560C127.5,560,127.5,560,255,560C286.875,560,286.875,560,318.75,560C350.625,560,350.625,560,382.5,560L382.5,560C350.625,560,350.625,560,318.75,560C286.875,560,286.875,560,255,560C127.5,560,127.5,560,0,560Z"><title>Lomo con papas fritas</title></path><path fill="rgb(95, 252, 115)" d="M0,560C127.5,560,127.5,560,255,560C286.875,560,286.875,560,318.75,560C350.625,560,350.625,560,382.5,560L382.5,560C350.625,560,350.625,560,318.75,560C286.875,560,286.875,560,255,560C127.5,560,127.5,560,0,560Z"><title>Merluza con zapallo</title></path><path fill="rgb(203, 232, 57)" d="M0,560C127.5,560,127.5,560,255,560C286.875,560,286.875,560,318.75,560C350.625,560,350.625,560,382.5,560L382.5,560C350.625,560,350.625,560,318.75,560C286.875,560,286.875,560,255,560C127.5,560,127.5,560,0,560Z"><title>Pollo con ensalada</title></path><path fill="rgb(35, 23, 27)" d="M0,560C127.5,560,127.5,560,255,560C286.875,560,286.875,560,318.75,560C350.625,560,350.625,560,382.5,560L382.5,560C350.625,560,350.625,560,318.75,560C286.875,560,286.875,560,255,560C127.5,560,127.5,560,0,560Z"><title>Arroz salteado</title></path><path fill="rgb(64, 118, 245)" d="M0,560C127.5,560,127.5,560,255,560C286.875,560,286.875,560,318.75,560C350.625,560,350.625,560,382.5,560L382.5,560C350.625,560,350.625,560,318.75,560C286.875,560,286.875,560,255,560C127.5,560,127.5,560,0,560Z"><title>Ensalada</title></path><path fill="rgb(149, 251, 81)" d="M0,560C127.5,560,127.5,560,255,560C286.875,560,286.875,560,318.75,560C350.625,560,350.625,560,382.5,560L382.5,560C350.625,560,350.625,560,318.75,560C286.875,560,286.875,560,255,560C127.5,560,127.5,560,0,560Z"><title>Pastas con salsa rosa</title></path><path fill="rgb(255, 178, 38)" d="M0,560C127.5,560,127.5,560,255,560C286.875,560,286.875,560,318.75,560C350.625,560,350.625,560,382.5,560L382.5,560C350.625,560,350.625,560,318.75,560C286.875,560,286.875,560,255,560C127.5,560,127.5,560,0,560Z"><title>Risotto de remolacha</title></path><path fill="rgb(44, 166, 241)" d="M0,560C127.5,560,127.5,560,255,560C286.875,560,286.875,560,318.75,560C350.625,560,350.625,560,382.5,560L382.5,560C350.625,560,350.625,560,318.75,560C286.875,560,286.875,560,255,560C127.5,560,127.5,560,0,560Z"><title>Fajitas</title></path><path fill="rgb(55, 237, 159)" d="M0,560C127.5,560,127.5,560,255,560C286.875,560,286.875,560,318.75,560C350.625,560,350.625,560,382.5,560L382.5,560C350.625,560,350.625,560,318.75,560C286.875,560,286.875,560,255,560C127.5,560,127.5,560,0,560Z"><title>Lomo con papas a la crema</title></path><path fill="rgb(226, 218, 49)" d="M0,560C127.5,560,127.5,560,255,560C286.875,560,286.875,560,318.75,560C350.625,560,350.625,560,382.5,560L382.5,560C350.625,560,350.625,560,318.75,560C286.875,560,286.875,560,255,560C127.5,560,127.5,560,0,560Z"><title>Risotto de calabaza</title></path><path fill="rgb(72, 93, 227)" d="M0,560C127.5,560,127.5,444,255,444C286.875,444,286.875,560,318.75,560C350.625,560,350.625,504,382.5,504L382.5,560C350.625,560,350.625,560,318.75,560C286.875,560,286.875,556,255,556C127.5,556,127.5,560,0,560Z"><title>Empanadas</title></path><path fill="rgb(235, 80, 21)" d="M0,559C127.5,559,127.5,560,255,560C286.875,560,286.875,276,318.75,276C350.625,276,350.625,560,382.5,560L382.5,560C350.625,560,350.625,444,318.75,444C286.875,444,286.875,560,255,560C127.5,560,127.5,559,0,559Z"><title>Sandwich de bondiola</title></path><path fill="rgb(177, 244, 68)" d="M0,559C127.5,559,127.5,559,255,559C286.875,559,286.875,445,318.75,445C350.625,445,350.625,335,382.5,335L382.5,503C350.625,503,350.625,501,318.75,501C286.875,501,286.875,559,255,559C127.5,559,127.5,559,0,559Z"><title>Pizza</title></path><path fill="rgb(214, 57, 15)" d="M0,189C127.5,189,127.5,558,255,558C286.875,558,286.875,559,318.75,559C350.625,559,350.625,560,382.5,560L382.5,560C350.625,560,350.625,559,318.75,559C286.875,559,286.875,558,255,558C127.5,558,127.5,329,0,329Z"><title>Sandwich de pollo</title></path><path fill="rgb(255, 130, 29)" d="M0,330C127.5,330,127.5,558,255,558C286.875,558,286.875,559,318.75,559C350.625,559,350.625,560,382.5,560L382.5,560C350.625,560,350.625,559,318.75,559C286.875,559,286.875,558,255,558C127.5,558,127.5,414,0,414Z"><title>Sandwich de Jamón y Queso</title></path><path fill="rgb(251, 105, 25)" d="M0,559C127.5,559,127.5,558,255,558C286.875,558,286.875,531,318.75,531C350.625,531,350.625,560,382.5,560L382.5,560C350.625,560,350.625,559,318.75,559C286.875,559,286.875,558,255,558C127.5,558,127.5,559,0,559Z"><title>Sandwich de Lomo</title></path><path fill="rgb(191, 37, 10)" d="M0,531C127.5,531,127.5,557,255,557C286.875,557,286.875,559,318.75,559C350.625,559,350.625,560,382.5,560L382.5,560C350.625,560,350.625,559,318.75,559C286.875,559,286.875,557,255,557C127.5,557,127.5,559,0,559Z"><title>Shawarma de hongos</title></path><path fill="rgb(74, 68, 188)" d="M0,502C127.5,502,127.5,557,255,557C286.875,557,286.875,559,318.75,559C350.625,559,350.625,560,382.5,560L382.5,560C350.625,560,350.625,559,318.75,559C286.875,559,286.875,557,255,557C127.5,557,127.5,530,0,530Z"><title>Chorizo de porotos</title></path><path fill="rgb(53, 143, 249)" d="M0,473C127.5,473,127.5,557,255,557C286.875,557,286.875,559,318.75,559C350.625,559,350.625,560,382.5,560L382.5,560C350.625,560,350.625,559,318.75,559C286.875,559,286.875,557,255,557C127.5,557,127.5,501,0,501Z"><title>Ensalada de tomate</title></path><path fill="rgb(168, 22, 4)" d="M0,444C127.5,444,127.5,557,255,557C286.875,557,286.875,559,318.75,559C350.625,559,350.625,560,382.5,560L382.5,560C350.625,560,350.625,559,318.75,559C286.875,559,286.875,557,255,557C127.5,557,127.5,472,0,472Z"><title>Souffle de queso</title></path><path fill="rgb(151, 13, 0)" d="M0,415C127.5,415,127.5,557,255,557C286.875,557,286.875,559,318.75,559C350.625,559,350.625,560,382.5,560L382.5,560C350.625,560,350.625,559,318.75,559C286.875,559,286.875,557,255,557C127.5,557,127.5,443,0,443Z"><title>Tartar de remolacha</title></path><path fill="rgb(38, 208, 205)" d="M0,559C127.5,559,127.5,557,255,557C286.875,557,286.875,502,318.75,502C350.625,502,350.625,560,382.5,560L382.5,560C350.625,560,350.625,530,318.75,530C286.875,530,286.875,557,255,557C127.5,557,127.5,559,0,559Z"><title>Hamburguesa con papas fritas</title></path></g><g id="xAxis" transform="translate(0,560)" fill="none" font-size="10" font-family="sans-serif" text-anchor="middle"><path class="domain" stroke="currentColor" d="M0,0H382.5"/><g class="tick" opacity="1" transform="translate(0,0)"><line stroke="currentColor" y2="6"/><text fill="currentColor" y="9" dy="0.71em">1.0</text></g><g class="tick" opacity="1" transform="translate(31.875,0)"><line stroke="currentColor" y2="6"/><text fill="currentColor" y="9" dy="0.71em">1.5</text></g><g class="tick" opacity="1" transform="translate(63.75,0)"><line stroke="currentColor" y2="6"/><text fill="currentColor" y="9" dy="0.71em">2.0</text></g><g class="tick" opacity="1" transform="translate(95.625,0)"><line stroke="currentColor" y2="6"/><text fill="currentColor" y="9" dy="0.71em">2.5</text></g><g class="tick" opacity="1" transform="translate(127.5,0)"><line stroke="currentColor" y2="6"/><text fill="currentColor" y="9" dy="0.71em">3.0</text></g><g class="tick" opacity="1" transform="translate(159.375,0)"><line stroke="currentColor" y2="6"/><text fill="currentColor" y="9" dy="0.71em">3.5</text></g><g class="tick" opacity="1" transform="translate(191.25,0)"><line stroke="currentColor" y2="6"/><text fill="currentColor" y="9" dy="0.71em">4.0</text></g><g class="tick" opacity="1" transform="translate(223.125,0)"><line stroke="currentColor" y2="6"/><text fill="currentColor" y="9" dy="0.71em">4.5</text></g><g class="tick" opacity="1" transform="translate(255,0)"><line stroke="currentColor" y2="6"/><text fill="currentColor" y="9" dy="0.71em">5.0</text></g><g class="tick" opacity="1" transform="translate(286.875,0)"><line stroke="currentColor" y2="6"/><text fill="currentColor" y="9" dy="0.71em">5.5</text></g><g class="tick" opacity="1" transform="translate(318.75,0)"><line stroke="currentColor" y2="6"/><text fill="currentColor" y="9" dy="0.71em">6.0</text></g><g class="tick" opacity="1" transform="translate(350.625,0)"><line stroke="currentColor" y2="6"/><text fill="currentColor" y="9" dy="0.71em">6.5</text></g><g class="tick" opacity="1" transform="translate(382.5,0)"><line stroke="currentColor" y2="6"/><text fill="currentColor" y="9" dy="0.71em">7.0</text></g></g><text y="556" x="382.5" text-anchor="end" display="none" style="font-family: Arial, sans-serif; font-size: 12px; fill: rgb(123, 123, 123); font-weight: bold;">dia de la semana</text><text x="4" text-anchor="start" dominant-baseline="hanging" display="none" style="font-family: Arial, sans-serif; font-size: 12px; fill: rgb(123, 123, 123); font-weight: bold;">puntaje</text></g><text x="4" y="4" style="font-family: Arial, sans-serif; font-size: 12px; fill: black; font-weight: bold; dominant-baseline: hanging;">Comprado</text></g></g><g id="legend" transform="translate(805,20)"><g transform="translate(5,0)"><g class="legendColor" transform="translate(0,0)"><g class="legendCells" transform="translate(0,16)"><g class="cell" transform="translate(0, 0)"><rect class="swatch" height="15" width="15" style="fill: rgb(35, 23, 27);"/><text class="label" transform="translate( 20, 12.5)" font-family="&quot;Arial&quot;, sans-serif" font-size="10px"><tspan x="0" dy="0em">Arroz salteado</tspan></text></g><g class="cell" transform="translate(0, 21)"><rect class="swatch" height="15" width="15" style="fill: rgb(64, 45, 124);"/><text class="label" transform="translate( 20, 12.5)" font-family="&quot;Arial&quot;, sans-serif" font-size="10px"><tspan x="0" dy="0em">Cereales con yogur</tspan></text></g><g class="cell" transform="translate(0, 42)"><rect class="swatch" height="15" width="15" style="fill: rgb(74, 68, 188);"/><text class="label" transform="translate( 20, 12.5)" font-family="&quot;Arial&quot;, sans-serif" font-size="10px"><tspan x="0" dy="0em">Chorizo de porotos</tspan></text></g><g class="cell" transform="translate(0, 63)"><rect class="swatch" height="15" width="15" style="fill: rgb(72, 93, 227);"/><text class="label" transform="translate( 20, 12.5)" font-family="&quot;Arial&quot;, sans-serif" font-size="10px"><tspan x="0" dy="0em">Empanadas</tspan></text></g><g class="cell" transform="translate(0, 84)"><rect class="swatch" height="15" width="15" style="fill: rgb(64, 118, 245);"/><text class="label" transform="translate( 20, 12.5)" font-family="&quot;Arial&quot;, sans-serif" font-size="10px"><tspan x="0" dy="0em">Ensalada</tspan></text></g><g class="cell" transform="translate(0, 105)"><rect class="swatch" height="15" width="15" style="fill: rgb(53, 143, 249);"/><text class="label" transform="translate( 20, 12.5)" font-family="&quot;Arial&quot;, sans-serif" font-size="10px"><tspan x="0" dy="0em">Ensalada de tomate</tspan></text></g><g class="cell" transform="translate(0, 126)"><rect class="swatch" height="15" width="15" style="fill: rgb(44, 166, 241);"/><text class="label" transform="translate( 20, 12.5)" font-family="&quot;Arial&quot;, sans-serif" font-size="10px"><tspan x="0" dy="0em">Fajitas</tspan></text></g><g class="cell" transform="translate(0, 147)"><rect class="swatch" height="15" width="15" style="fill: rgb(38, 188, 225);"/><text class="label" transform="translate( 20, 12.5)" font-family="&quot;Arial&quot;, sans-serif" font-size="10px"><tspan x="0" dy="0em">Falafel</tspan></text></g><g class="cell" transform="translate(0, 168)"><rect class="swatch" height="15" width="15" style="fill: rgb(38, 208, 205);"/><text class="label" transform="translate( 20, 12.5)" font-family="&quot;Arial&quot;, sans-serif" font-size="10px"><tspan x="0" dy="0em">Hamburguesa con papas</tspan><tspan x="0" dy="1.2em">fritas</tspan></text></g><g class="cell" transform="translate(0, 204.5999984741211)"><rect class="swatch" height="15" width="15" style="fill: rgb(43, 224, 182);"/><text class="label" transform="translate( 20, 12.5)" font-family="&quot;Arial&quot;, sans-serif" font-size="10px"><tspan x="0" dy="0em">Lomo con ensalada</tspan></text></g><g class="cell" transform="translate(0, 225.5999984741211)"><rect class="swatch" height="15" width="15" style="fill: rgb(55, 237, 159);"/><text class="label" transform="translate( 20, 12.5)" font-family="&quot;Arial&quot;, sans-serif" font-size="10px"><tspan x="0" dy="0em">Lomo con papas a la crema</tspan></text></g><g class="cell" transform="translate(0, 246.5999984741211)"><rect class="swatch" height="15" width="15" style="fill: rgb(73, 247, 136);"/><text class="label" transform="translate( 20, 12.5)" font-family="&quot;Arial&quot;, sans-serif" font-size="10px"><tspan x="0" dy="0em">Lomo con papas fritas</tspan></text></g><g class="cell" transform="translate(0, 267.5999984741211)"><rect class="swatch" height="15" width="15" style="fill: rgb(95, 252, 115);"/><text class="label" transform="translate( 20, 12.5)" font-family="&quot;Arial&quot;, sans-serif" font-size="10px"><tspan x="0" dy="0em">Merluza con zapallo</tspan></text></g><g class="cell" transform="translate(0, 288.5999984741211)"><rect class="swatch" height="15" width="15" style="fill: rgb(121, 254, 96);"/><text class="label" transform="translate( 20, 12.5)" font-family="&quot;Arial&quot;, sans-serif" font-size="10px"><tspan x="0" dy="0em">Pastas con crema</tspan></text></g><g class="cell" transform="translate(0, 309.5999984741211)"><rect class="swatch" height="15" width="15" style="fill: rgb(149, 251, 81);"/><text class="label" transform="translate( 20, 12.5)" font-family="&quot;Arial&quot;, sans-serif" font-size="10px"><tspan x="0" dy="0em">Pastas con salsa rosa</tspan></text></g><g class="cell" transform="translate(0, 330.5999984741211)"><rect class="swatch" height="15" width="15" style="fill: rgb(177, 244, 68);"/><text class="label" transform="translate( 20, 12.5)" font-family="&quot;Arial&quot;, sans-serif" font-size="10px"><tspan x="0" dy="0em">Pizza</tspan></text></g><g class="cell" transform="translate(0, 351.5999984741211)"><rect class="swatch" height="15" width="15" style="fill: rgb(203, 232, 57);"/><text class="label" transform="translate( 20, 12.5)" font-family="&quot;Arial&quot;, sans-serif" font-size="10px"><tspan x="0" dy="0em">Pollo con ensalada</tspan></text></g><g class="cell" transform="translate(0, 372.5999984741211)"><rect class="swatch" height="15" width="15" style="fill: rgb(226, 218, 49);"/><text class="label" transform="translate( 20, 12.5)" font-family="&quot;Arial&quot;, sans-serif" font-size="10px"><tspan x="0" dy="0em">Risotto de calabaza</tspan></text></g><g class="cell" transform="translate(0, 393.5999984741211)"><rect class="swatch" height="15" width="15" style="fill: rgb(245, 199, 43);"/><text class="label" transform="translate( 20, 12.5)" font-family="&quot;Arial&quot;, sans-serif" font-size="10px"><tspan x="0" dy="0em">Risotto de hongos</tspan></text></g><g class="cell" transform="translate(0, 414.5999984741211)"><rect class="swatch" height="15" width="15" style="fill: rgb(255, 178, 38);"/><text class="label" transform="translate( 20, 12.5)" font-family="&quot;Arial&quot;, sans-serif" font-size="10px"><tspan x="0" dy="0em">Risotto de remolacha</tspan></text></g><g class="cell" transform="translate(0, 435.5999984741211)"><rect class="swatch" height="15" width="15" style="fill: rgb(255, 155, 33);"/><text class="label" transform="translate( 20, 12.5)" font-family="&quot;Arial&quot;, sans-serif" font-size="10px"><tspan x="0" dy="0em">Salmon con zapallo</tspan></text></g><g class="cell" transform="translate(0, 456.5999984741211)"><rect class="swatch" height="15" width="15" style="fill: rgb(255, 130, 29);"/><text class="label" transform="translate( 20, 12.5)" font-family="&quot;Arial&quot;, sans-serif" font-size="10px"><tspan x="0" dy="0em">Sandwich de Jamón y</tspan><tspan x="0" dy="1.2em">Queso</tspan></text></g><g class="cell" transform="translate(0, 493.1999969482422)"><rect class="swatch" height="15" width="15" style="fill: rgb(251, 105, 25);"/><text class="label" transform="translate( 20, 12.5)" font-family="&quot;Arial&quot;, sans-serif" font-size="10px"><tspan x="0" dy="0em">Sandwich de Lomo</tspan></text></g><g class="cell" transform="translate(0, 514.1999969482422)"><rect class="swatch" height="15" width="15" style="fill: rgb(235, 80, 21);"/><text class="label" transform="translate( 20, 12.5)" font-family="&quot;Arial&quot;, sans-serif" font-size="10px"><tspan x="0" dy="0em">Sandwich de bondiola</tspan></text></g><g class="cell" transform="translate(0, 535.1999969482422)"><rect class="swatch" height="15" width="15" style="fill: rgb(214, 57, 15);"/><text class="label" transform="translate( 20, 12.5)" font-family="&quot;Arial&quot;, sans-serif" font-size="10px"><tspan x="0" dy="0em">Sandwich de pollo</tspan></text></g><g class="cell" transform="translate(0, 556.1999969482422)"><rect class="swatch" height="15" width="15" style="fill: rgb(191, 37, 10);"/><text class="label" transform="translate( 20, 12.5)" font-family="&quot;Arial&quot;, sans-serif" font-size="10px"><tspan x="0" dy="0em">Shawarma de hongos</tspan></text></g><g class="cell" transform="translate(0, 577.1999969482422)"><rect class="swatch" height="15" width="15" style="fill: rgb(168, 22, 4);"/><text class="label" transform="translate( 20, 12.5)" font-family="&quot;Arial&quot;, sans-serif" font-size="10px"><tspan x="0" dy="0em">Souffle de queso</tspan></text></g><g class="cell" transform="translate(0, 598.1999969482422)"><rect class="swatch" height="15" width="15" style="fill: rgb(151, 13, 0);"/><text class="label" transform="translate( 20, 12.5)" font-family="&quot;Arial&quot;, sans-serif" font-size="10px"><tspan x="0" dy="0em">Tartar de remolacha</tspan></text></g><g class="cell" transform="translate(0, 619.1999969482422)"><rect class="swatch" height="15" width="15" style="fill: rgb(144, 12, 0);"/><text class="label" transform="translate( 20, 12.5)" font-family="&quot;Arial&quot;, sans-serif" font-size="10px"><tspan x="0" dy="0em">Tostada con huevos</tspan><tspan x="0" dy="1.2em">revueltos</tspan></text></g></g><text class="legendTitle" font-family="&quot;Arial&quot;, sans-serif" font-size="12px" font-weight="bold"><tspan x="0" dy="0em">Colors</tspan></text></g></g></g></svg>